# xmcd CD database file
#
# Track frame offsets:
#	150
#	26262
#	57418
#	89406
#	112202
#	154282
#	179244
#	193526
#
# Disc length: 3059 seconds
#
# Revision: 0
# Processed by: cddbd v1.5.2PL0 Copyright (c) Steve Scherf et al.
# Submitted via: CDex 1.51
#
DISCID=700bf108
DTITLE=Allan Holdsworth - All Night Wrong
DYEAR=2002
DGENRE=Jazz
TTITLE0=Lanyard Loop
TTITLE1=The Things You See
TTITLE2=Alphrazallan
TTITLE3=Funnels
TTITLE4=Zone
TTITLE5=Water On The Brain PT.II
TTITLE6=Above and Below
TTITLE7=Gas Lamp Blues
EXTD=YEAR: 2002
EXTT0=
EXTT1=
EXTT2=
EXTT3=
EXTT4=
EXTT5=
EXTT6=
EXTT7=
PLAYORDER=
